# xmcd
#
# Track frame offsets: 
#        150
#        27376
#        57776
#        84577
#        110398
#        127819
#        153961
#        174114
#        203166
#        227471
#        248975
#        260024
#
# Disc length: 3677 seconds
#
# Revision: 1
# Processed by: cddbd v1.5.2PL0 Copyright (c) Steve Scherf et al.
# Submitted via: ExactAudioCopy v1.0b1
#
DISCID=8f0e5b0c
DTITLE=Lito Epumer and Armando Alonso - Sinfin
DYEAR=2005
DGENRE=Jazz
TTITLE0=Reyes Magos
TTITLE1=A.J.A. [Dedicado A Armando]
TTITLE2=Foolish Door
TTITLE3=Vida
TTITLE4=Unquity Road
TTITLE5=Milonga De Milano
TTITLE6=El Carpo [Dedicado A Pappo]
TTITLE7=J.C. [Dedicado A Mi Hijo Juan Carlos]
TTITLE8=Autopista
TTITLE9=Fee-Fi-Fo-Fum
TTITLE10=La Arribeña
TTITLE11=Princesa Cristal (Instrumental) [Dedicado a María Gabriela Ep
TTITLE11=umer]
EXTD=YEAR: 2005
EXTT0=
EXTT1=
EXTT2=
EXTT3=
EXTT4=
EXTT5=
EXTT6=
EXTT7=
EXTT8=
EXTT9=
EXTT10=
EXTT11=
PLAYORDER=
